<svg xmlns="http://www.w3.org/2000/svg" width="27" height="27" viewBox="0 0 27 27">
    <g>
        <path d="M12.5 25.809C5.608 25.809 0 20.2 0 13.309S5.608.809 12.5.809c2.397 0 4.728.683 6.743 1.976.396.255.512.782.257 1.178-.256.397-.782.512-1.178.257-1.739-1.117-3.753-1.707-5.822-1.707-5.952 0-10.795 4.844-10.795 10.796 0 5.952 4.843 10.795 10.795 10.795s10.795-4.843 10.795-10.795c0-.356-.017-.708-.05-1.055-.045-.469.298-.885.766-.93.47-.044.886.297.931.766.039.4.058.808.058 1.219 0 6.892-5.608 12.5-12.5 12.5z" transform="translate(0 .191)"/>
        <path d="M13.867 15.809c-.214 0-.429-.082-.592-.246l-5.03-5.04c-.327-.329-.327-.86 0-1.19.328-.327.859-.327 1.186 0l4.437 4.448 11.7-11.726c.328-.328.859-.328 1.186 0 .328.328.328.86 0 1.188l-12.293 12.32c-.165.164-.38.246-.594.246z" transform="translate(0 .191)"/>
    </g>
</svg>
